<?xml version="1.0" encoding="UTF-8" standalone="no"?><svg xmlns="http://www.w3.org/2000/svg" xmlns:xlink="http://www.w3.org/1999/xlink" contentScriptType="application/ecmascript" contentStyleType="text/css" height="71px" preserveAspectRatio="none" style="width:385px;height:71px;" version="1.1" viewBox="0 0 385 71" width="385px" zoomAndPan="magnify"><defs><filter height="300%" id="f1exvegnjoeh5x" width="300%" x="-1" y="-1"><feGaussianBlur result="blurOut" stdDeviation="2.0"/><feColorMatrix in="blurOut" result="blurOut2" type="matrix" values="0 0 0 0 0 0 0 0 0 0 0 0 0 0 0 0 0 0 .4 0"/><feOffset dx="4.0" dy="4.0" in="blurOut2" result="blurOut3"/><feBlend in="SourceGraphic" in2="blurOut3" mode="normal"/></filter></defs><g><ellipse cx="16" cy="32" fill="#000000" filter="url(#f1exvegnjoeh5x)" rx="10" ry="10" style="stroke:none;stroke-width:1.0;"/><g id="Off"><rect fill="#FEFECE" filter="url(#f1exvegnjoeh5x)" height="50.2656" rx="12.5" ry="12.5" style="stroke:#A80036;stroke-width:1.5;" width="117" x="61.5" y="7"/><line style="stroke:#A80036;stroke-width:1.5;" x1="61.5" x2="178.5" y1="33.2969" y2="33.2969"/><text fill="#000000" font-family="sans-serif" font-size="14" lengthAdjust="spacing" textLength="19" x="110.5" y="24.9951">Off</text><text fill="#000000" font-family="sans-serif" font-size="12" lengthAdjust="spacing" textLength="97" x="66.5" y="49.4355">enter / enter_off();</text></g><g id="On"><rect fill="#FEFECE" filter="url(#f1exvegnjoeh5x)" height="50.2656" rx="12.5" ry="12.5" style="stroke:#A80036;stroke-width:1.5;" width="118" x="253" y="7"/><line style="stroke:#A80036;stroke-width:1.5;" x1="253" x2="371" y1="33.2969" y2="33.2969"/><text fill="#000000" font-family="sans-serif" font-size="14" lengthAdjust="spacing" textLength="19" x="302.5" y="24.9951">On</text><text fill="#000000" font-family="sans-serif" font-size="12" lengthAdjust="spacing" textLength="98" x="258" y="49.4355">enter / enter_on();</text></g><!--MD5=[79cb27a3a0f2a433e2384f6da7fb5477]
link *start to Off--><path d="M26.16,32 C36.15,32 46.13,32 56.12,32 " fill="none" id="*start-to-Off" style="stroke:#A80036;stroke-width:1.0;"/><polygon fill="#A80036" points="61.35,32,52.35,28,56.35,32,52.35,36,61.35,32" style="stroke:#A80036;stroke-width:1.0;"/><!--MD5=[88d9d84fc04544578402cf3b742eaaec]
link Off to On--><path d="M178.65,32 C200.49,32 225.38,32 247.7,32 " fill="none" id="Off-to-On" style="stroke:#A80036;stroke-width:1.0;"/><polygon fill="#A80036" points="252.72,32,243.72,28,247.72,32,243.72,36,252.72,32" style="stroke:#A80036;stroke-width:1.0;"/><text fill="#000000" font-family="sans-serif" font-size="13" lengthAdjust="spacing" textLength="38" x="196.75" y="25.0669">Switch</text><!--MD5=[2ee57ebca22bdc8713f173619aa2ce0d]
link On to Off--><path d="M252.77,49.11 C247.05,50.28 241.32,51.28 235.75,52 C218.12,54.27 213.38,54.29 195.75,52 C191.86,51.5 187.89,50.85 183.9,50.1 " fill="none" id="On-to-Off" style="stroke:#A80036;stroke-width:1.0;"/><polygon fill="#A80036" points="178.84,49.11,186.8903,54.7838,183.7445,50.0823,188.446,46.9366,178.84,49.11" style="stroke:#A80036;stroke-width:1.0;"/><text fill="#000000" font-family="sans-serif" font-size="13" lengthAdjust="spacing" textLength="38" x="196.75" y="48.0669">Switch</text><!--MD5=[344e0410f57566a6c751d93d3c03dc04]
@startuml lightbulb
[*] -> Off
Off -> On : Switch
On -> Off : Switch

' Event handlers
' Call functions when we enter various states.
' You can call these functions whatever you want.
' You will define these functions in your app.
Off: enter / enter_off();
On: enter / enter_on();
@enduml

@startuml lightbulb
[*] -> Off
Off -> On : Switch
On -> Off : Switch

Off: enter / enter_off();
On: enter / enter_on();
@enduml

PlantUML version 1.2021.01(Tue Feb 02 07:55:08 GMT 2021)
(GPL source distribution)
Java Runtime: OpenJDK Runtime Environment
JVM: OpenJDK 64-Bit Server VM
Default Encoding: UTF-8
Language: en
Country: US
--></g></svg>