<?xml version="1.0" encoding="us-ascii" standalone="no"?><svg xmlns="http://www.w3.org/2000/svg" xmlns:xlink="http://www.w3.org/1999/xlink" contentStyleType="text/css" height="63px" preserveAspectRatio="none" style="width:245px;height:63px;background:#FFFFFF;" version="1.1" viewBox="0 0 245 63" width="245px" zoomAndPan="magnify"><defs/><g><ellipse cx="16" cy="32" fill="#181818" rx="10" ry="10" style="stroke:none;stroke-width:1.0;"/><g id="Off"><rect fill="#F1F1F1" height="50" rx="12.5" ry="12.5" style="stroke:#181818;stroke-width:0.5;" width="50" x="61" y="7"/><line style="stroke:#181818;stroke-width:0.5;" x1="61" x2="111" y1="33.4883" y2="33.4883"/><text fill="#000000" font-family="sans-serif" font-size="14" lengthAdjust="spacing" textLength="21" x="75.5" y="25.5352">Off</text></g><g id="On"><rect fill="#F1F1F1" height="50" rx="12.5" ry="12.5" style="stroke:#181818;stroke-width:0.5;" width="50" x="188" y="7"/><line style="stroke:#181818;stroke-width:0.5;" x1="188" x2="238" y1="33.4883" y2="33.4883"/><text fill="#000000" font-family="sans-serif" font-size="14" lengthAdjust="spacing" textLength="20" x="203" y="25.5352">On</text></g><!--link *start* to Off--><g id="link_*start*_Off"><path d="M26.39,32 C35.72,32 45.06,32 54.39,32 " fill="none" id="*start*-to-Off" style="stroke:#181818;stroke-width:1.0;"/><polygon fill="#181818" points="59.34,32,50.34,28,54.34,32,50.34,36,59.34,32" style="stroke:#181818;stroke-width:1.0;"/></g><!--link Off to On--><g id="link_Off_On"><path d="M111.4,32 C131.47,32 159.6,32 181.18,32 " fill="none" id="Off-to-On" style="stroke:#181818;stroke-width:1.0;"/><polygon fill="#181818" points="186.14,32,177.14,28,181.14,32,177.14,36,186.14,32" style="stroke:#181818;stroke-width:1.0;"/><text fill="#000000" font-family="sans-serif" font-size="13" lengthAdjust="spacing" textLength="41" x="129" y="25.5684">Switch</text></g><!--link On to Off--><g id="link_On_Off"><path d="M187.89,46.16 C182.48,48.58 176.67,50.72 171,52 C152.36,56.21 146.64,56.21 128,52 C124.37,51.18 120.68,50 117.07,48.63 " fill="none" id="On-to-Off" style="stroke:#181818;stroke-width:1.0;"/><polygon fill="#181818" points="112.51,46.74,119.2902,53.8834,117.1283,48.656,122.3558,46.4941,112.51,46.74" style="stroke:#181818;stroke-width:1.0;"/><text fill="#000000" font-family="sans-serif" font-size="13" lengthAdjust="spacing" textLength="41" x="129" y="48.5684">Switch</text></g><!--SRC=[YzQALT2rK_1FI-C2OZ0pJy5A8RWyioGvWml8XaZ2XG00]--></g></svg>