<?xml version="1.0" encoding="UTF-8" standalone="no"?><svg xmlns="http://www.w3.org/2000/svg" xmlns:xlink="http://www.w3.org/1999/xlink" contentScriptType="application/ecmascript" contentStyleType="text/css" height="71px" preserveAspectRatio="none" style="width:250px;height:71px;" version="1.1" viewBox="0 0 250 71" width="250px" zoomAndPan="magnify"><defs><filter height="300%" id="fn3c5u7q68tbz" width="300%" x="-1" y="-1"><feGaussianBlur result="blurOut" stdDeviation="2.0"/><feColorMatrix in="blurOut" result="blurOut2" type="matrix" values="0 0 0 0 0 0 0 0 0 0 0 0 0 0 0 0 0 0 .4 0"/><feOffset dx="4.0" dy="4.0" in="blurOut2" result="blurOut3"/><feBlend in="SourceGraphic" in2="blurOut3" mode="normal"/></filter></defs><g><ellipse cx="16" cy="32" fill="#000000" filter="url(#fn3c5u7q68tbz)" rx="10" ry="10" style="stroke:none;stroke-width:1.0;"/><g id="Off"><rect fill="#FEFECE" filter="url(#fn3c5u7q68tbz)" height="50" rx="12.5" ry="12.5" style="stroke:#A80036;stroke-width:1.5;" width="50" x="61" y="7"/><line style="stroke:#A80036;stroke-width:1.5;" x1="61" x2="111" y1="33.2969" y2="33.2969"/><text fill="#000000" font-family="sans-serif" font-size="14" lengthAdjust="spacing" textLength="19" x="76.5" y="24.9951">Off</text></g><g id="On"><rect fill="#FEFECE" filter="url(#fn3c5u7q68tbz)" height="50" rx="12.5" ry="12.5" style="stroke:#A80036;stroke-width:1.5;" width="50" x="186" y="7"/><line style="stroke:#A80036;stroke-width:1.5;" x1="186" x2="236" y1="33.2969" y2="33.2969"/><text fill="#000000" font-family="sans-serif" font-size="14" lengthAdjust="spacing" textLength="19" x="201.5" y="24.9951">On</text></g><!--MD5=[79cb27a3a0f2a433e2384f6da7fb5477]
link *start to Off--><path d="M26.12,32 C35.94,32 45.77,32 55.6,32 " fill="none" id="*start-to-Off" style="stroke:#A80036;stroke-width:1.0;"/><polygon fill="#A80036" points="60.74,32,51.74,28,55.74,32,51.74,36,60.74,32" style="stroke:#A80036;stroke-width:1.0;"/><!--MD5=[88d9d84fc04544578402cf3b742eaaec]
link Off to On--><path d="M111.3,32 C131.29,32 159.27,32 180.5,32 " fill="none" id="Off-to-On" style="stroke:#A80036;stroke-width:1.0;"/><polygon fill="#A80036" points="185.74,32,176.74,28,180.74,32,176.74,36,185.74,32" style="stroke:#A80036;stroke-width:1.0;"/><text fill="#000000" font-family="sans-serif" font-size="13" lengthAdjust="spacing" textLength="38" x="129.5" y="25.0669">Switch</text><!--MD5=[2ee57ebca22bdc8713f173619aa2ce0d]
link On to Off--><path d="M185.57,46.16 C180.1,48.58 174.23,50.72 168.5,52 C151.15,55.88 145.85,55.88 128.5,52 C124.38,51.08 120.19,49.71 116.13,48.12 " fill="none" id="On-to-Off" style="stroke:#A80036;stroke-width:1.0;"/><polygon fill="#A80036" points="111.43,46.16,118.2102,53.3034,116.0483,48.076,121.2758,45.9141,111.43,46.16" style="stroke:#A80036;stroke-width:1.0;"/><text fill="#000000" font-family="sans-serif" font-size="13" lengthAdjust="spacing" textLength="38" x="129.5" y="48.0669">Switch</text><!--MD5=[07e7ce221b2acf47576cb72c3d69c973]
@startuml TODO
[*] -> Off
Off -> On : Switch
On -> Off : Switch
@enduml

PlantUML version 1.2021.01(Tue Feb 02 07:55:08 GMT 2021)
(GPL source distribution)
Java Runtime: OpenJDK Runtime Environment
JVM: OpenJDK 64-Bit Server VM
Default Encoding: UTF-8
Language: en
Country: US
--></g></svg>